<svg version="1.2" xmlns="http://www.w3.org/2000/svg" viewBox="0 0 1191 842" width="500" height="353"><style>.a{fill:#bcbcbc}.b{fill:#e0e2e2}.c{fill:#fff}.d{fill:#9f00cb}.e{fill:none;stroke:#000;stroke-linecap:round;stroke-linejoin:round;stroke-width:9}</style><g style="opacity:.2;mix-blend-mode:multiply"></g><path class="a" d="m752.7 305.4c0.6-0.6 1-1.2 0.2-1.5l-19.2-7.5c-0.7-0.3-2.3-0.2-2.9 0.4l-0.1 0.2c-0.2 0.1 0 0.3-0.1 0.4 0.7-0.4 1.7-0.4 2.3-0.2l19.2 7.5c0.6 0.2 0.6 0.7 0.3 1.2 0.1-0.1 0-0.3 0.1-0.4z"/><path class="b" d="m752.1 304.7l-19.2-7.5c-0.6-0.2-1.4-0.1-2 0.3-0.3 0.6-0.1 1.1 0.5 1.3l19.2 7.5c0.6 0.3 1.4 0.1 2-0.3 0.3-0.5 0.1-1.1-0.5-1.3z"/><path class="c" d="m245.8 513.5c-74 0-133.8-59.8-133.8-133.7 0-74 59.8-133.8 133.8-133.8 73.9 0 133.7 59.8 133.7 133.8 0 73.9-59.8 133.7-133.7 133.7z"/><path class="d" d="m245.8 422c-23.4 0-42.3-18.9-42.3-42.2 0-23.4 18.9-42.3 42.3-42.3 23.3 0 42.2 18.9 42.2 42.3 0 23.3-18.9 42.2-42.2 42.2z"/><path class="d" d="m237.3 295.3h16.9v25.3h-16.9z"/><path class="d" d="m311.5 326l-11.9-12-18 18 12 11.9z"/><path class="d" d="m304.9 371.3h25.4v16.9h-25.4z"/><path class="d" d="m281.6 427.6l18 17.9 11.9-11.9-17.9-18z"/><path class="d" d="m237.3 438.9h16.9v25.4h-16.9z"/><path class="d" d="m180 433.6l12 11.9 17.9-17.9-11.9-12z"/><path class="d" d="m161.3 371.3h25.3v16.9h-25.3z"/><path class="d" d="m209.9 332l-17.9-18-12 12 18 17.9z"/><path class="c" d="m962.2 513.5c-73.9 0-133.7-59.8-133.7-133.7 0-74 59.8-133.8 133.7-133.8 74 0 133.8 59.8 133.8 133.8 0 73.9-59.8 133.7-133.8 133.7z"/><path class="d" d="m938.9 360.3c7.4-8.5 6.5-21.5-2-28.9-8.6-7.4-44.3-11.3-44.3-11.3 0 0 7.2 33.3 17.5 42.2 8.5 7.4 21.4 6.5 28.8-2z"/><path class="d" d="m971.9 371.9c0-2.7 0.8-5.9 2.4-9.1 11.6 7.6 27.4 6.1 37.4-4.2 11.5-11.7 20.2-63.3 20.2-63.3 0 0-48.9 7.7-62.8 21.8-8.4 8.7-10.5 21.2-6.2 31.8-5.4 7.8-7.9 16-7.9 23v24.8h16.9z"/><path class="d" d="m1011.4 405.1h-95.9c-2.7 0-5.2 1.3-6.8 3.4-1.6 2.1-2.1 4.8-1.4 7.4l12.1 42.2c1 3.7 4.4 6.2 8.1 6.2h71.8c3.8 0 7.1-2.5 8.1-6.2l12.1-42.2c0.7-2.6 0.2-5.3-1.4-7.4-1.6-2.1-4.1-3.4-6.7-3.4z"/><path class="c" d="m604 513.5c-74 0-133.8-59.8-133.8-133.7 0-74 59.8-133.8 133.8-133.8 74 0 133.8 59.8 133.8 133.8 0 73.9-59.8 133.7-133.8 133.7z"/><path class="d" d="m671.6 388.2v33.8l-16.9 16.9v-25.3l-16.9 8.4v42.3h33.8l16.9-33.8v-50.7z"/><path class="d" d="m553.3 438.9l-16.9-16.9v-33.8l-16.9-8.4v50.7l16.9 33.8h33.8v-42.3l-16.9-8.4z"/><path fill-rule="evenodd" class="d" d="m646.3 371.3c0 23.4-19 42.3-42.3 42.3-23.3 0-42.3-18.9-42.3-42.3 0-23.3 42.3-76 42.3-76 0 0 42.3 52.7 42.3 76zm-16.9 5.6h-9c-2.1 4.9-6 8.8-10.9 10.9v8.9c9.5-2.9 17-10.3 19.9-19.8z"/><path class="e" d=""/><path class="e" d=""/><path class="e" d=""/><path class="e" d=""/></svg>