<svg version="1.2" xmlns="http://www.w3.org/2000/svg" viewBox="0 0 1191 842" width="541" height="382"><style>.a{fill:#bcbcbc}.b{fill:#e0e2e2}.c{fill:#fff}.d{fill:#9f00cb}.e{fill:none;stroke:#000;stroke-linecap:round;stroke-linejoin:round;stroke-width:9}</style><g style="opacity:.2;mix-blend-mode:multiply"></g><path class="a" d="m657.6 191.8c2.4-2.5 3.9-4.7 1-5.8l-75.2-29.4c-2.9-1.1-9-0.8-11.4 1.7l-0.6 0.6c-0.4 0.4 0.2 1.3-0.1 1.7 2.5-1.5 6.7-1.7 9-0.8l75.2 29.4c2.4 0.9 2.1 2.6 1 4.7 0.6-0.3 0.2-1.1 0.6-1.5z"/><path class="b" d="m655.5 189.2l-75.2-29.4c-2.3-0.9-5.6-0.4-8 1.2-1.2 2.1-0.5 4.2 1.9 5.1l75.1 29.4c2.4 1 5.7 0.4 8.1-1.2 1.1-2.1 0.5-4.2-1.9-5.1z"/><path class="c" d="m594.8 646.2c-132.6 0-239.8-107.2-239.8-239.8 0-132.6 107.2-239.8 239.8-239.8 132.6 0 239.8 107.2 239.8 239.8 0 132.6-107.2 239.8-239.8 239.8z"/><path class="d" d="m553 371.5c13.3-15.3 11.6-38.5-3.7-51.8-15.2-13.2-79.4-20.3-79.4-20.3 0 0 12.9 59.7 31.4 75.7 15.3 13.3 38.4 11.7 51.7-3.6z"/><path class="d" d="m612.1 392.3c0-4.9 1.5-10.5 4.3-16.3 20.9 13.6 49.1 11 67.1-7.5 20.6-21.1 36.2-113.6 36.2-113.6 0 0-87.8 13.8-112.5 39.2-15.2 15.6-18.8 38-11.3 57-9.5 13.9-14.1 28.7-14.1 41.2v44.4h30.3z"/><path class="d" d="m682.9 451.8h-171.9c-4.8 0-9.3 2.3-12.1 6.1-2.9 3.7-3.8 8.7-2.5 13.2l21.6 75.8c1.9 6.5 7.8 11 14.6 11h128.6c6.8 0 12.8-4.5 14.6-11l21.7-75.8c1.3-4.5 0.3-9.5-2.5-13.2-2.9-3.8-7.4-6.1-12.1-6.1z"/><path class="e" d=""/><path class="e" d=""/><path class="e" d=""/><path class="e" d=""/></svg>