<svg version="1.2" xmlns="http://www.w3.org/2000/svg" viewBox="0 0 1191 842" width="541" height="382"><style>.a{fill:#fff}.b{fill:#9f00cb}.c{fill:none;stroke:#000;stroke-linecap:round;stroke-linejoin:round;stroke-width:9}</style><g style="opacity:.2;mix-blend-mode:multiply"></g><path class="a" d="m595 670.7c-147.5 0-266.7-119.2-266.7-266.7 0-147.5 119.2-266.7 266.7-266.7 147.5 0 266.7 119.2 266.7 266.7 0 147.5-119.2 266.7-266.7 266.7z"/><path class="b" d="m595 488.3c-46.6 0-84.3-37.7-84.3-84.3 0-46.6 37.7-84.3 84.3-84.3 46.6 0 84.3 37.7 84.3 84.3 0 46.6-37.7 84.3-84.3 84.3z"/><path class="b" d="m578.1 235.5h33.8v50.5h-33.8z"/><path class="b" d="m726.1 296.8l-23.9-23.9-35.7 35.8 23.8 23.8z"/><path class="b" d="m713 387.1h50.5v33.8h-50.5z"/><path class="b" d="m666.5 499.3l35.7 35.8 23.9-23.8-35.8-35.8z"/><path class="b" d="m578.1 522h33.8v50.5h-33.8z"/><path class="b" d="m463.9 511.3l23.9 23.8 35.7-35.8-23.8-23.8z"/><path class="b" d="m426.5 387.1h50.5v33.8h-50.5z"/><path class="b" d="m523.5 308.7l-35.7-35.8-23.9 23.9 35.8 35.7z"/><path class="c" d=""/><path class="c" d=""/><path class="c" d=""/><path class="c" d=""/></svg>