<svg version="1.2" xmlns="http://www.w3.org/2000/svg" viewBox="0 0 1191 842" width="541" height="382"><style>.a{fill:#fff}.b{fill:#9f00cb}.c{fill:none;stroke:#000;stroke-linecap:round;stroke-linejoin:round;stroke-width:9}</style><g style="opacity:.2;mix-blend-mode:multiply"></g><path class="a" d="m595 627c-126.1 0-228-101.9-228-228 0-126.1 101.9-228 228-228 126.1 0 228 101.9 228 228 0 126.1-101.9 228-228 228z"/><path class="b" d="m710.2 413.4v57.6l-28.8 28.8v-43.2l-28.8 14.4v72h57.6l28.8-57.6v-86.4z"/><path class="b" d="m508.6 499.8l-28.8-28.8v-57.6l-28.8-14.4v86.4l28.8 57.6h57.6v-72l-28.8-14.4z"/><path fill-rule="evenodd" class="b" d="m667 384.6c0 39.8-32.2 72-72 72-39.8 0-72-32.2-72-72 0-39.8 72-129.6 72-129.6 0 0 72 89.8 72 129.6zm-28.8 9.6h-15.2c-3.7 8.2-10.3 14.9-18.6 18.5v15.1c16.2-4.9 28.9-17.5 33.8-33.6z"/><path class="c" d=""/><path class="c" d=""/><path class="c" d=""/><path class="c" d=""/></svg>